<?xml version="1.0" encoding="UTF-8" standalone="no"?>
<!-- Created with Inkscape (http://www.inkscape.org/) -->

<svg
   version="1.1"
   id="svg1"
   width="954.97107"
   height="963.30536"
   viewBox="0 0 954.97107 963.30536"
   sodipodi:docname="whatsapp-official-logo-png-download.png"
   xmlns:inkscape="http://www.inkscape.org/namespaces/inkscape"
   xmlns:sodipodi="http://sodipodi.sourceforge.net/DTD/sodipodi-0.dtd"
   xmlns="http://www.w3.org/2000/svg"
   xmlns:svg="http://www.w3.org/2000/svg">
  <defs
     id="defs1" />
  <sodipodi:namedview
     id="namedview1"
     pagecolor="#ffffff"
     bordercolor="#000000"
     borderopacity="0.25"
     inkscape:showpageshadow="2"
     inkscape:pageopacity="0.0"
     inkscape:pagecheckerboard="0"
     inkscape:deskcolor="#d1d1d1">
    <inkscape:page
       x="0"
       y="0"
       width="954.97107"
       height="963.30536"
       id="page2"
       margin="0"
       bleed="0" />
  </sodipodi:namedview>
  <g
     inkscape:groupmode="layer"
     inkscape:label="Image"
     id="g1"
     transform="translate(-15.847348,-17.464424)">
    <path
       style="fill:#ffffff"
       d="M 42.149614,900.89881 C 57.000526,856.74287 76.05032,800.09188 84.48249,775.00772 l 15.331219,-45.60755 -6.46564,-11.39245 C 62.999717,664.53398 44.143684,607.34283 36.17523,544.60006 22.932771,440.33033 46.112488,332.12129 100.86411,242.61528 121.1865,209.39297 142.40723,182.58845 170.9801,154.04975 240.63314,84.480028 332.3885,37.611552 427.07768,23.235561 c 99.49513,-15.1056471 196.2387,-0.463965 282.94806,42.822854 20.81087,10.389148 32.28162,17.062573 52.53973,30.566443 71.0396,47.354322 128.70349,114.584862 164.67091,191.990422 21.91056,47.15376 35.63686,96.66527 40.86593,147.40561 8.12351,78.82676 -1.93717,152.61122 -30.69215,225.09439 -34.84043,87.82288 -97.90228,165.15538 -177.34469,217.47711 -64.65277,42.5811 -138.7599,68.60772 -215.5,75.68418 -17.73882,1.63576 -67.79589,1.6413 -85.5,0.009 -57.44024,-5.29441 -110.96496,-20.40602 -164.17378,-46.35109 l -20.67377,-10.0807 -55.32623,17.76069 c -85.35365,27.40049 -141.56072,45.40181 -173.326224,55.51129 -15.95,5.07614 -29.31894,9.41547 -29.708755,9.64296 -0.389816,0.22747 11.441991,-35.71397 26.292903,-79.86991 z M 545.06547,875.60507 c 69.34784,-8.29158 133.24415,-33.36071 187.96114,-73.74483 72.54632,-53.54312 122.65168,-127.23836 147.36482,-216.74496 2.1306,-7.71665 7.31543,-34.48166 9.10469,-47 10.79336,-75.51448 -3.55445,-158.90834 -39.31314,-228.5 C 830.68263,271.66472 810.132,243.18157 780.6814,213.28614 758.66358,190.93577 741.30759,176.51573 716.81877,160.22658 668.22675,127.90479 610.51761,106.29751 552.12566,98.562678 c -28.76907,-3.81086 -75.91942,-3.54357 -104.43106,0.59202 -49.30239,7.151272 -97.3173,23.513622 -138.62913,47.241542 -108.68316,62.42343 -180.44455,170.14829 -195.66222,293.71904 -2.2555,18.31507 -2.54144,69.96039 -0.49278,89 6.60921,61.42373 28.09823,120.39575 63.33716,173.81534 l 8.78363,13.31534 -4.96153,14.68466 c -29.34261,86.8454 -43.66861,130.18466 -43.03317,130.18466 0.4207,0 23.66181,-7.36595 51.64691,-16.36878 76.60765,-24.64475 96.58251,-30.96629 97.78655,-30.94698 0.6025,0.01 5.59545,2.87125 11.09545,6.35909 14.46592,9.17361 43.58692,23.70481 61.5,30.68811 15.36391,5.98953 35.03862,12.28949 50.55218,16.1871 11.38767,2.86103 40.85432,7.73991 54.44782,9.01509 6.325,0.59333 13.3,1.25799 15.5,1.47702 8.88958,0.88501 52.80359,-0.40281 65.5,-1.92086 z m 74.5,-154.16543 c -20.19731,-2.5312 -53.01382,-13.63126 -101.3844,-34.29286 -47.02926,-20.08865 -80.2252,-43.09026 -121.20781,-83.98538 -35.97097,-35.89419 -55.64513,-61.30235 -92.5675,-119.54612 -7.5915,-11.97534 -18.93813,-34.43506 -24.18274,-47.86778 -8.70718,-22.30115 -14.06985,-51.69149 -12.70538,-69.63222 2.82189,-37.10333 15.80213,-65.55426 41.64535,-91.28095 7.91196,-7.8763 11.307,-10.48463 17.43444,-13.39454 6.82458,-3.24098 8.50416,-3.62447 16.28862,-3.71905 4.77368,-0.058 14.90004,0.29921 22.50303,0.7938 22.57237,1.4684 21.12968,-0.48255 42.22495,57.10074 13.31865,36.35561 16.6045,45.15475 19.55819,52.37457 5.00254,12.22795 4.92754,15.01111 -0.70079,26.00653 -4.9503,9.67083 -13.05,19.79608 -28.49338,35.6189 -4.29448,4.4 -8.28165,9.26679 -8.86036,10.8151 -2.50659,6.70613 -0.44572,12.79669 10.32121,30.50265 16.19301,26.629 30.57888,45.14339 51.11078,65.77873 27.86988,28.0103 51.48552,44.74908 88.72419,62.88775 19.32399,9.41256 24.10626,10.45063 30.41701,6.6025 3.699,-2.25556 20.93361,-20.98157 37.37445,-40.60867 6.4601,-7.71207 12.47814,-14.62988 13.37343,-15.3729 2.91257,-2.41722 9.90397,-2.50908 16.76779,-0.2203 10.61412,3.53932 100.19179,51.12486 104.85223,55.6997 2.15894,2.11929 2.54147,3.50791 2.85239,10.35446 0.67324,14.82509 -5.61489,42.15022 -12.34521,53.64625 -10.1513,17.33935 -35.11564,35.22611 -62.94575,45.10014 -3.81989,1.35528 -11.69489,3.09197 -17.5,3.8593 -5.80511,0.76733 -12.97866,1.85868 -15.94123,2.42522 -5.25116,1.00419 -10.53023,1.11681 -16.61351,0.35443 z"
       id="path1"
       inkscape:export-filename="path1.png"
       inkscape:export-xdpi="96"
       inkscape:export-ydpi="96" />
  </g>
</svg>
